<svg version="1.1" id="Layer_1" xmlns="http://www.w3.org/2000/svg" xmlns:xlink="http://www.w3.org/1999/xlink" x="0px" y="0px"
	 width="100%" viewBox="0 0 496 496" enable-background="new 0 0 496 496" xml:space="preserve">
<path fill="#000000" opacity="1.000000" stroke="none" 
	d="
M51.247929,382.684479 
	C30.110838,350.487366 17.436172,315.516602 13.140294,277.679504 
	C10.037743,250.352966 11.709926,223.200134 18.144310,196.341675 
	C29.456230,149.123352 52.921650,109.010315 88.445267,76.081726 
	C119.384789,47.402367 155.531372,28.216034 196.787811,18.996525 
	C260.652344,4.724828 320.585236,14.896239 376.204590,49.116787 
	C418.451874,75.110001 449.157776,111.467789 468.980072,156.859207 
	C479.443848,180.820343 485.412506,205.940338 487.493591,232.114182 
	C490.689240,272.307129 484.635101,310.937195 468.052551,347.551971 
	C438.863373,412.002472 390.198792,455.392578 323.262146,478.119781 
	C295.007385,487.713257 265.716095,490.929993 236.055267,489.123108 
	C185.383606,486.036255 140.076981,468.609253 100.431503,436.663391 
	C81.326042,421.268494 65.107338,403.314453 51.247929,382.684479 
M30.404678,194.844193 
	C22.493185,225.728745 20.888544,256.897888 26.314503,288.357025 
	C35.108147,339.341614 58.319717,382.588654 96.339546,417.713562 
	C136.011047,454.364410 182.963440,474.429565 236.836014,477.550262 
	C269.449982,479.439514 301.241943,474.806458 331.852264,462.793884 
	C378.896759,444.331940 415.891052,413.634186 442.604858,370.953094 
	C468.764557,329.157410 479.596130,283.408051 476.027802,234.085815 
	C474.140869,208.004135 468.045837,183.092529 457.440033,159.374359 
	C438.788879,117.664070 410.146301,84.279053 371.476410,59.830399 
	C324.437256,30.090307 273.007538,19.094332 218.051971,26.679850 
	C176.796173,32.374390 139.724335,48.680073 107.322021,75.153023 
	C68.930695,106.519043 43.448902,146.199585 30.404678,194.844193 
z"/>
<path fill="#000000" opacity="1.000000" stroke="none" 
	d="
M233.368927,234.534943 
	C208.781616,196.187943 229.832703,147.240173 274.152405,139.185272 
	C279.355865,138.239563 284.751068,137.953125 290.051025,138.005249 
	C308.859161,138.190186 327.671234,137.302994 346.478546,138.593018 
	C374.599091,140.521835 398.752533,164.365585 402.495941,192.366486 
	C406.254639,220.481644 387.436432,256.387451 348.628265,261.758820 
	C336.102936,263.492401 323.313232,262.703064 310.696564,262.105988 
	C302.444977,261.715485 296.511932,264.072205 291.193756,270.320740 
	C285.705536,276.769073 279.302429,282.440033 273.280365,288.431793 
	C271.636078,290.067780 269.996307,292.133972 267.306274,290.926422 
	C264.712433,289.762085 264.893585,287.162842 264.877930,284.844360 
	C264.831818,278.015167 264.673737,271.178925 264.922302,264.358643 
	C265.063721,260.477264 263.794525,258.382721 260.055145,256.860016 
	C248.965652,252.344254 240.211166,244.811447 233.368927,234.534943 
M349.642212,223.370911 
	C363.535126,217.049713 368.961670,202.658920 362.502411,189.266571 
	C356.819397,177.483719 341.510590,172.491287 329.518494,178.510040 
	C320.662628,182.954758 320.484711,185.165649 328.735260,191.157501 
	C329.998047,190.262772 331.299530,189.263519 332.675140,188.379547 
	C338.022522,184.943222 343.362549,185.166885 348.627686,188.566055 
	C353.187836,191.510071 356.093994,197.488785 354.979248,202.294174 
	C353.578644,208.331741 350.469574,212.915863 343.913208,214.487137 
	C337.120850,216.114990 332.337128,212.763748 327.948029,208.421860 
	C319.418976,199.984497 311.068268,191.365494 302.478607,182.991089 
	C294.731537,175.438171 283.714722,173.781235 274.310822,178.428757 
	C264.418640,183.317596 259.995148,191.918503 261.096527,204.122208 
	C261.953918,213.622467 268.894257,221.501328 278.763306,224.177994 
	C288.124969,226.717026 299.018250,223.149841 303.037048,216.229111 
	C298.430603,209.866730 298.430603,209.866730 291.804596,213.281708 
	C285.861084,216.344940 278.447693,214.872772 274.115509,209.768936 
	C269.861542,204.757263 269.869446,196.633499 274.133514,191.277954 
	C278.477417,185.822159 285.315735,184.418716 291.664276,187.652542 
	C294.385895,189.038910 296.533783,191.125320 298.657166,193.248779 
	C306.434082,201.025955 314.348877,208.671570 321.943695,216.622757 
	C329.570557,224.607513 338.554871,226.479446 349.642212,223.370911 
z"/>
<path fill="#000000" opacity="1.000000" stroke="none" 
	d="
M180.000000,179.899658 
	C188.833069,179.904373 197.167480,179.999680 205.498611,179.874924 
	C209.527069,179.814606 211.004517,181.372681 210.003952,185.339523 
	C208.851593,189.908112 209.053040,194.607971 208.929565,199.265457 
	C208.722107,207.091965 208.758835,207.105728 200.689331,207.112228 
	C183.856506,207.125763 167.022217,207.248413 150.191849,207.047089 
	C145.644226,206.992706 144.213608,208.402588 144.235764,213.039810 
	C144.412613,250.037842 144.417374,287.037445 144.240387,324.035461 
	C144.218018,328.711761 145.696854,330.025116 150.218079,329.974274 
	C167.881882,329.775818 185.549500,329.942474 203.215424,329.885651 
	C206.588852,329.874817 209.315796,330.028198 210.400284,334.203827 
	C211.246887,337.463623 214.332794,338.586121 217.540726,338.603271 
	C228.540009,338.662140 239.539978,338.664886 250.539246,338.606171 
	C253.727066,338.589142 256.868958,337.548615 257.702332,334.265808 
	C258.764771,330.080658 261.480103,329.877258 264.862732,329.887146 
	C282.528656,329.938782 300.196533,329.765594 317.859863,329.982849 
	C322.461914,330.039429 323.895905,328.600555 323.807495,323.997467 
	C323.541931,310.169647 323.837280,296.331696 323.639343,282.501617 
	C323.578094,278.220490 324.879211,276.447845 329.340088,276.664154 
	C334.823578,276.930023 340.370453,277.010315 345.821045,276.472626 
	C350.071014,276.053375 351.080475,277.677856 351.049316,281.445496 
	C350.937653,294.944061 350.986725,308.443939 350.974274,321.943329 
	C350.967102,329.700775 350.966522,329.688904 358.506805,329.722046 
	C369.428528,329.770020 368.284912,328.733459 368.283813,339.782043 
	C368.282227,356.015747 359.882324,364.291412 343.524109,364.292816 
	C270.859650,364.299011 198.195160,364.300751 125.530693,364.297852 
	C108.539261,364.297180 100.662254,356.519501 100.696083,339.656342 
	C100.716347,329.554565 99.283958,329.941681 110.361267,329.916046 
	C117.853874,329.898682 117.854042,329.893250 117.854271,322.594543 
	C117.855522,282.929077 117.857353,243.263611 117.857498,203.598145 
	C117.857552,187.781448 125.671410,179.932648 141.501724,179.903748 
	C154.167770,179.880630 166.833908,179.899521 180.000000,179.899658 
z"/>
</svg>